<svg xmlns="http://www.w3.org/2000/svg" viewBox="0 0 24 24" stroke="url(#g23)" fill="none" stroke-width="2" stroke-linecap="round" stroke-linejoin="round">
  <defs>
    <linearGradient id="g23" x1="0%" y1="0%" x2="100%" y2="100%">
      <stop offset="0%" stop-color="#38bdf8" />
      <stop offset="100%" stop-color="#6366f1" />
    </linearGradient>
  </defs>
  <style>
  .a{animation:f 3s ease-in-out infinite}@keyframes f{0%,100%{transform:translateY(0)}50%{transform:translateY(-2px)}}
  </style>
  <g class="a">
    <path d="M12 21a9.004 9.004 0 008.716-6.747M12 21a9.004 9.004 0 01-8.716-6.747M12 21c2.485 0 4.5-4.03 4.5-9S14.485 3 12 3m0 18c-2.485 0-4.5-4.03-4.5-9S9.515 3 12 3m0 0a8.997 8.997 0 017.843 4.582M12 3a8.997 8.997 0 00-7.843 4.582m15.686 0A11.953 11.953 0 0112 10.5c-2.998 0-5.74-1.1-7.843-2.918m15.686 0A8.959 8.959 0 0121 12c0 .778-.099 1.533-.284 2.253m-18.432 0A8.959 8.959 0 013 12c0-.778.099-1.533.284-2.253" />
  </g>
</svg>
